<svg width="108" height="107" viewBox="0 0 108 107" fill="none" xmlns="http://www.w3.org/2000/svg">
<rect x="0.21875" width="107" height="107" rx="53.5" fill="white"/>
<path fill-rule="evenodd" clip-rule="evenodd" d="M54.6473 27.1429C47.8621 27.1429 42.3616 32.6434 42.3616 39.4286C42.3616 46.2138 47.8621 51.7143 54.6473 51.7143V57.8571C44.4695 57.8571 36.2188 49.6064 36.2188 39.4286C36.2188 29.2508 44.4695 21 54.6473 21C64.8251 21 73.0759 29.2508 73.0759 39.4286H66.933C66.933 32.6434 61.4325 27.1429 54.6473 27.1429ZM54.6456 79.3571C51.0151 79.3568 47.9742 78.2521 45.8722 76.3105C43.8096 74.4052 42.3616 71.4295 42.3616 67.0714H36.2188C36.2188 72.8911 38.2086 77.5941 41.7041 80.8229C45.1596 84.0147 49.796 85.4997 54.6456 85.5V79.3571ZM54.6473 79.3571C59.0045 79.3568 61.9797 77.9089 63.8847 75.8465C65.8266 73.7442 66.9314 70.7027 66.9314 67.0714H73.0742C73.0742 71.9217 71.5893 76.5587 68.3971 80.0146C65.1686 83.5098 60.4663 85.4996 54.6473 85.5V79.3571ZM66.9319 60.9285C70.3245 60.9285 73.0748 58.1783 73.0748 54.7857C73.0748 51.3931 70.3245 48.6428 66.9319 48.6428C63.5393 48.6428 60.7891 51.3931 60.7891 54.7857C60.7891 58.1783 63.5393 60.9285 66.9319 60.9285Z" fill="#812CE5"/>
</svg>
