<svg width="107" height="108" viewBox="0 0 107 108" fill="none" xmlns="http://www.w3.org/2000/svg">
<rect y="0.5" width="107" height="107" rx="53.5" fill="white"/>
<path fill-rule="evenodd" clip-rule="evenodd" d="M47.5699 54.0717C47.5699 43.4203 38.9353 34.7858 28.284 34.7858V30.5C41.3023 30.5 51.8557 41.0534 51.8557 54.0717C51.8557 67.0899 41.3023 77.6433 28.284 77.6433L28.284 73.3576C38.9353 73.3576 47.5699 64.723 47.5699 54.0717ZM79.7152 64.786C73.7978 64.786 69.0008 59.989 69.0008 54.0716C69.0008 48.1542 73.7978 43.3572 79.7152 43.3572V39.0715C71.4309 39.0715 64.7151 45.7873 64.7151 54.0716C64.7151 62.356 71.4309 69.0718 79.7152 69.0718L79.7152 64.786ZM38.9996 54.0717C38.9996 48.1543 34.2026 43.3573 28.2852 43.3573V39.0715C36.5696 39.0715 43.2854 45.7873 43.2854 54.0717C43.2854 62.356 36.5696 69.0718 28.2852 69.0718L28.2852 64.7861C34.2026 64.7861 38.9996 59.9891 38.9996 54.0717ZM23.999 54.0716C23.999 56.4386 25.9178 58.3574 28.2848 58.3574C30.6517 58.3574 32.5705 56.4386 32.5705 54.0716C32.5705 51.7047 30.6517 49.7859 28.2848 49.7859C25.9178 49.7859 23.999 51.7047 23.999 54.0716ZM84.0014 54.0717C84.0014 51.7047 82.0826 49.7859 79.7157 49.7859C77.3487 49.7859 75.4299 51.7047 75.4299 54.0717C75.4299 56.4386 77.3487 58.3574 79.7157 58.3574C82.0826 58.3574 84.0014 56.4386 84.0014 54.0717ZM79.7164 73.3576C69.0651 73.3576 60.4305 64.723 60.4305 54.0717C60.4305 43.4203 69.0651 34.7858 79.7164 34.7858V30.5C66.6982 30.5 56.1448 41.0534 56.1448 54.0717C56.1448 67.0899 66.6981 77.6433 79.7164 77.6433V73.3576Z" fill="#E12353"/>
</svg>
