<svg width="107" height="106" viewBox="0 0 107 106" fill="none" xmlns="http://www.w3.org/2000/svg">
<rect x="0.21875" width="106" height="106" rx="53" fill="white"/>
<path fill-rule="evenodd" clip-rule="evenodd" d="M24.6719 48.557C25.1129 47.2512 25.7747 46.1171 26.6259 45.1956C28.2434 43.4444 30.7697 42.2151 34.4696 42.2151V37C29.5288 37 25.5362 38.6893 22.795 41.6569C21.174 43.4118 20.0716 45.5254 19.4473 47.822C17.5524 48.6032 16.2188 50.4686 16.2188 52.6454C16.2188 54.8133 17.5416 56.6722 19.4241 57.4591C20.1591 60.2207 21.5493 62.5355 23.4812 64.32C26.4151 67.0301 30.3518 68.2908 34.4696 68.2908V63.0756C31.3868 63.0756 28.8046 62.1378 27.0198 60.4891C26.0134 59.5595 25.1793 58.3297 24.6519 56.7495C25.1746 56.3391 25.6168 55.8311 25.9513 55.2529L79.4979 55.2529C79.8281 55.8238 80.2634 56.3262 80.7773 56.7338C80.3363 58.0396 79.6746 59.1737 78.8233 60.0952C77.2058 61.8464 74.6795 63.0756 70.9796 63.0756V68.2908C75.9204 68.2908 79.9131 66.6014 82.6542 63.6338C84.2752 61.8789 85.3777 59.7653 86.002 57.4688C87.8968 56.6875 89.2305 54.8222 89.2305 52.6454C89.2305 50.4775 87.9077 48.6185 86.0252 47.8316C85.2901 45.0701 83.8999 42.7552 81.9681 40.9708C79.0341 38.2607 75.0974 37 70.9796 37V42.2151C74.0625 42.2151 76.6446 43.153 78.4294 44.8017C79.4358 45.7313 80.2699 46.961 80.7973 48.5412C80.2747 48.9516 79.8324 49.4596 79.4979 50.0378H25.9513C25.6211 49.467 25.1858 48.9646 24.6719 48.557Z" fill="#B932CC"/>
</svg>
