<svg width="108" height="107" viewBox="0 0 108 107" fill="none" xmlns="http://www.w3.org/2000/svg">
<rect x="0.21875" width="107" height="107" rx="53.5" fill="white"/>
<path fill-rule="evenodd" clip-rule="evenodd" d="M30.8858 54.1914C30.7124 54.0306 30.5495 53.8772 30.3975 53.7322C30.5492 53.5876 30.7117 53.4347 30.8848 53.2745C32.1904 52.0658 34.0826 50.4518 36.4171 48.8402C41.1289 45.5876 47.4219 42.497 54.2188 42.497C61.0156 42.497 67.3086 45.5876 72.0204 48.8402C74.3549 50.4518 76.2471 52.0658 77.5527 53.2745C77.7258 53.4347 77.8883 53.5876 78.04 53.7322C77.888 53.8772 77.7251 54.0306 77.5517 54.1914C76.246 55.4016 74.3539 57.0175 72.0194 58.6311C67.3074 61.8878 61.0148 64.9818 54.2188 64.9818C47.4227 64.9818 41.1301 61.8878 36.4181 58.6311C34.0836 57.0175 32.1915 55.4016 30.8858 54.1914ZM81.2006 53.7312C82.8752 52.2308 82.8747 52.2302 82.8742 52.2296L81.2006 53.7312ZM82.8738 55.2332L84.2188 53.7303L82.8742 52.2296L82.8694 52.2243L82.8591 52.2129L82.8253 52.1757L82.7055 52.0461C82.6026 51.9358 82.4542 51.779 82.2624 51.5823C81.879 51.189 81.3214 50.6352 80.6077 49.9745C79.1827 48.6553 77.1234 46.8985 74.5752 45.1394C69.5215 41.6507 62.3236 38 54.2188 38C46.1139 38 38.916 41.6507 33.8623 45.1394C31.3141 46.8985 29.2549 48.6553 27.8298 49.9745C27.1161 50.6352 26.5585 51.189 26.1751 51.5823C25.9833 51.779 25.8349 51.9358 25.732 52.0461L25.6122 52.1757L25.5784 52.2129L25.5681 52.2243L25.5646 52.2281L24.2188 53.7303L25.5614 55.2306C25.5609 55.23 25.572 55.2211 27.2369 53.7312L25.5614 55.2306L25.5672 55.2371L25.5775 55.2485L25.6113 55.2857L25.7311 55.4155C25.8339 55.5259 25.9824 55.6829 26.1742 55.8799C26.5576 56.2736 27.1152 56.828 27.8288 57.4895C29.2538 58.8104 31.3131 60.5692 33.8613 62.3304C38.9149 65.8233 46.1132 69.4788 54.2188 69.4788C62.3243 69.4788 69.5226 65.8233 74.5762 62.3304C77.1245 60.5692 79.1837 58.8104 80.6087 57.4895C81.3223 56.828 81.8799 56.2736 82.2633 55.8799C82.4551 55.6829 82.6036 55.5259 82.7064 55.4155L82.8262 55.2857L82.86 55.2485L82.8703 55.2371L82.8738 55.2332ZM82.8738 55.2332C82.8743 55.2326 82.8761 55.2306 81.2006 53.7312L82.8738 55.2332ZM25.5646 52.2281C25.5641 52.2287 25.5623 52.2308 27.2369 53.7312L25.5646 52.2281ZM63.2145 53.7395C63.2145 48.7722 59.1877 44.7455 54.2205 44.7455C49.2533 44.7455 45.2266 48.7722 45.2266 53.7395C45.2266 58.7067 49.2533 62.7334 54.2205 62.7334C59.1877 62.7334 63.2145 58.7067 63.2145 53.7395Z" fill="#CC2FAA"/>
</svg>
